<?xml version="1.0" encoding="utf-8" standalone="no"?>
<!DOCTYPE svg PUBLIC "-//W3C//DTD SVG 1.1//EN"
  "http://www.w3.org/Graphics/SVG/1.1/DTD/svg11.dtd">
<svg xmlns:xlink="http://www.w3.org/1999/xlink" width="659.899521pt" height="375.368846pt" viewBox="0 0 659.899521 375.368846" xmlns="http://www.w3.org/2000/svg" version="1.1">
 <metadata>
  <rdf:RDF xmlns:dc="http://purl.org/dc/elements/1.1/" xmlns:cc="http://creativecommons.org/ns#" xmlns:rdf="http://www.w3.org/1999/02/22-rdf-syntax-ns#">
   <cc:Work>
    <dc:type rdf:resource="http://purl.org/dc/dcmitype/StillImage"/>
    <dc:date>2026-06-15T16:28:50.938376</dc:date>
    <dc:format>image/svg+xml</dc:format>
    <dc:creator>
     <cc:Agent>
      <dc:title>Matplotlib v3.10.9, https://matplotlib.org/</dc:title>
     </cc:Agent>
    </dc:creator>
   </cc:Work>
  </rdf:RDF>
 </metadata>
 <defs>
  <style type="text/css">*{stroke-linejoin: round; stroke-linecap: butt}</style>
 </defs>
 <g id="figure_1">
  <g id="patch_1">
   <path d="M 0 375.368846
L 659.899521 375.368846
L 659.899521 0
L 0 0
z
" style="fill: #ffffff"/>
  </g>
  <g id="axes_1">
   <g id="patch_2">
    <path d="M 39.989154 94.254018
L 100.965476 94.254018
Q 115.346684 94.254018 115.346684 90.472951
L 115.346684 59.31696
Q 115.346684 55.535893 100.965476 55.535893
L 39.989154 55.535893
Q 25.607946 55.535893 25.607946 59.31696
L 25.607946 90.472951
Q 25.607946 94.254018 39.989154 94.254018
z
" clip-path="url(#pa16b4dfa1a)" style="fill: #eef3fa; stroke: #272727; stroke-width: 0.9; stroke-linejoin: miter"/>
   </g>
   <g id="patch_3">
    <path d="M 106.992803 74.894955
Q 115.06106 74.894955 122.011282 74.894955
" clip-path="url(#pa16b4dfa1a)" style="fill: none; stroke: #767676; stroke-linecap: round"/>
    <path d="M 118.811282 73.294955
L 122.011282 74.894955
L 118.811282 76.494955
z
" clip-path="url(#pa16b4dfa1a)" style="fill: #767676; stroke: #767676; stroke-linecap: round"/>
   </g>
   <g id="patch_4">
    <path d="M 132.028885 94.254018
L 193.005207 94.254018
Q 207.386415 94.254018 207.386415 90.472951
L 207.386415 59.31696
Q 207.386415 55.535893 193.005207 55.535893
L 132.028885 55.535893
Q 117.647677 55.535893 117.647677 59.31696
L 117.647677 90.472951
Q 117.647677 94.254018 132.028885 94.254018
z
" clip-path="url(#pa16b4dfa1a)" style="fill: #fbf4e3; stroke: #272727; stroke-width: 0.9; stroke-linejoin: miter"/>
   </g>
   <g id="patch_5">
    <path d="M 199.032535 74.894955
Q 207.100791 74.894955 214.051014 74.894955
" clip-path="url(#pa16b4dfa1a)" style="fill: none; stroke: #767676; stroke-linecap: round"/>
    <path d="M 210.851014 73.294955
L 214.051014 74.894955
L 210.851014 76.494955
z
" clip-path="url(#pa16b4dfa1a)" style="fill: #767676; stroke: #767676; stroke-linecap: round"/>
   </g>
   <g id="patch_6">
    <path d="M 224.068617 94.254018
L 285.044939 94.254018
Q 299.426147 94.254018 299.426147 90.472951
L 299.426147 59.31696
Q 299.426147 55.535893 285.044939 55.535893
L 224.068617 55.535893
Q 209.687409 55.535893 209.687409 59.31696
L 209.687409 90.472951
Q 209.687409 94.254018 224.068617 94.254018
z
" clip-path="url(#pa16b4dfa1a)" style="fill: #eef7ef; stroke: #272727; stroke-width: 0.9; stroke-linejoin: miter"/>
   </g>
   <g id="patch_7">
    <path d="M 291.072266 74.894955
Q 299.140522 74.894955 306.090745 74.894955
" clip-path="url(#pa16b4dfa1a)" style="fill: none; stroke: #767676; stroke-linecap: round"/>
    <path d="M 302.890745 73.294955
L 306.090745 74.894955
L 302.890745 76.494955
z
" clip-path="url(#pa16b4dfa1a)" style="fill: #767676; stroke: #767676; stroke-linecap: round"/>
   </g>
   <g id="patch_8">
    <path d="M 316.108348 94.254018
L 377.08467 94.254018
Q 391.465878 94.254018 391.465878 90.472951
L 391.465878 59.31696
Q 391.465878 55.535893 377.08467 55.535893
L 316.108348 55.535893
Q 301.72714 55.535893 301.72714 59.31696
L 301.72714 90.472951
Q 301.72714 94.254018 316.108348 94.254018
z
" clip-path="url(#pa16b4dfa1a)" style="fill: #eef0fa; stroke: #272727; stroke-width: 0.9; stroke-linejoin: miter"/>
   </g>
   <g id="patch_9">
    <path d="M 383.111997 74.894955
Q 391.180254 74.894955 398.130476 74.894955
" clip-path="url(#pa16b4dfa1a)" style="fill: none; stroke: #767676; stroke-linecap: round"/>
    <path d="M 394.930476 73.294955
L 398.130476 74.894955
L 394.930476 76.494955
z
" clip-path="url(#pa16b4dfa1a)" style="fill: #767676; stroke: #767676; stroke-linecap: round"/>
   </g>
   <g id="patch_10">
    <path d="M 408.148079 94.254018
L 469.124401 94.254018
Q 483.505609 94.254018 483.505609 90.472951
L 483.505609 59.31696
Q 483.505609 55.535893 469.124401 55.535893
L 408.148079 55.535893
Q 393.766871 55.535893 393.766871 59.31696
L 393.766871 90.472951
Q 393.766871 94.254018 408.148079 94.254018
z
" clip-path="url(#pa16b4dfa1a)" style="fill: #eef3fa; stroke: #272727; stroke-width: 0.9; stroke-linejoin: miter"/>
   </g>
   <g id="patch_11">
    <path d="M 475.151728 74.894955
Q 483.219985 74.894955 490.170207 74.894955
" clip-path="url(#pa16b4dfa1a)" style="fill: none; stroke: #767676; stroke-linecap: round"/>
    <path d="M 486.970207 73.294955
L 490.170207 74.894955
L 486.970207 76.494955
z
" clip-path="url(#pa16b4dfa1a)" style="fill: #767676; stroke: #767676; stroke-linecap: round"/>
   </g>
   <g id="patch_12">
    <path d="M 500.18781 94.254018
L 561.164132 94.254018
Q 575.54534 94.254018 575.54534 90.472951
L 575.54534 59.31696
Q 575.54534 55.535893 561.164132 55.535893
L 500.18781 55.535893
Q 485.806602 55.535893 485.806602 59.31696
L 485.806602 90.472951
Q 485.806602 94.254018 500.18781 94.254018
z
" clip-path="url(#pa16b4dfa1a)" style="fill: #fbecec; stroke: #272727; stroke-width: 0.9; stroke-linejoin: miter"/>
   </g>
   <g id="patch_13">
    <path d="M 310.355865 142.651674
L 446.114468 142.651674
Q 460.495676 142.651674 460.495676 138.870607
L 460.495676 113.764323
Q 460.495676 109.983256 446.114468 109.983256
L 310.355865 109.983256
Q 295.974657 109.983256 295.974657 113.764323
L 295.974657 138.870607
Q 295.974657 142.651674 310.355865 142.651674
z
" clip-path="url(#pa16b4dfa1a)" style="fill: #f8e8ee; stroke: #b64342; stroke-width: 0.9; stroke-linejoin: miter"/>
   </g>
   <g id="patch_14">
    <path d="M 379.924715 111.632679
Q 406.044351 95.298901 435.534736 91.87747
" clip-path="url(#pa16b4dfa1a)" style="fill: none; stroke: #b64342; stroke-linecap: round"/>
    <path d="M 432.171665 90.656917
L 435.534736 91.87747
L 432.54045 93.835595
z
" clip-path="url(#pa16b4dfa1a)" style="fill: #b64342; stroke: #b64342; stroke-linecap: round"/>
   </g>
   <g id="text_1">
    <text style="font-weight: 700; font-size: 9px; font-family: 'Arial', 'DejaVu Sans', 'Liberation Sans', sans-serif; text-anchor: start" x="7.2" y="14.038594" transform="rotate(-0 7.2 14.038594)">a</text>
   </g>
   <g id="text_2">
    <text style="font-weight: 700; font-size: 9px; font-family: 'Arial', 'DejaVu Sans', 'Liberation Sans', sans-serif; text-anchor: start" x="30.209933" y="31.03458" transform="rotate(-0 30.209933 31.03458)">RiceGeneFormer-OMTL architecture</text>
   </g>
   <g id="text_3">
    <text style="font-size: 7px; font-family: 'Arial', 'DejaVu Sans', 'Liberation Sans', sans-serif; fill: #272727" transform="translate(49.707003 72.907284)">SNP dosage</text>
    <text style="font-size: 7px; font-family: 'Arial', 'DejaVu Sans', 'Liberation Sans', sans-serif; fill: #272727" transform="translate(56.120206 80.745752)">X ∈ Rⁿˣˢ</text>
   </g>
   <g id="text_4">
    <text style="font-size: 7px; font-family: 'Arial', 'DejaVu Sans', 'Liberation Sans', sans-serif; fill: #272727" transform="translate(146.290718 72.907284)">Train-fold</text>
    <text style="font-size: 7px; font-family: 'Arial', 'DejaVu Sans', 'Liberation Sans', sans-serif; fill: #272727" transform="translate(142.915953 80.745752)">GWAS gate</text>
   </g>
   <g id="text_5">
    <text style="font-size: 7px; font-family: 'Arial', 'DejaVu Sans', 'Liberation Sans', sans-serif; fill: #272727" transform="translate(232.832715 72.907284)">SNP-to-gene</text>
    <text style="font-size: 7px; font-family: 'Arial', 'DejaVu Sans', 'Liberation Sans', sans-serif; fill: #272727" transform="translate(238.551387 80.745752)">GeneBag</text>
   </g>
   <g id="text_6">
    <text style="font-size: 7px; font-family: 'Arial', 'DejaVu Sans', 'Liberation Sans', sans-serif; fill: #272727" transform="translate(326.001196 72.907284)">Gene graph</text>
    <text style="font-size: 7px; font-family: 'Arial', 'DejaVu Sans', 'Liberation Sans', sans-serif; fill: #272727" transform="translate(332.344399 80.745752)">encoder</text>
   </g>
   <g id="text_7">
    <text style="font-size: 7px; font-family: 'Arial', 'DejaVu Sans', 'Liberation Sans', sans-serif; fill: #272727" transform="translate(419.719834 72.907284)">Trait-query</text>
    <text style="font-size: 7px; font-family: 'Arial', 'DejaVu Sans', 'Liberation Sans', sans-serif; fill: #272727" transform="translate(424.380302 80.745752)">decoder</text>
   </g>
   <g id="text_8">
    <text style="font-size: 7px; font-family: 'Arial', 'DejaVu Sans', 'Liberation Sans', sans-serif; fill: #272727" transform="translate(518.013627 72.907284)">Ordinal</text>
    <text style="font-size: 7px; font-family: 'Arial', 'DejaVu Sans', 'Liberation Sans', sans-serif; fill: #272727" transform="translate(520.114174 80.745752)">heads</text>
   </g>
   <g id="text_9">
    <text style="font-size: 6.8px; font-family: 'Arial', 'DejaVu Sans', 'Liberation Sans', sans-serif; fill: #272727" transform="translate(351.619541 124.386583)">Top-SNP branch</text>
    <text style="font-size: 6.8px; font-family: 'Arial', 'DejaVu Sans', 'Liberation Sans', sans-serif; fill: #272727" transform="translate(349.572635 132.001096)">train-fold top512</text>
   </g>
   <g id="text_10">
    <text style="font-size: 6px; font-family: 'Arial', 'DejaVu Sans', 'Liberation Sans', sans-serif; text-anchor: start; fill: #b64342" x="455.89369" y="109.680771" transform="rotate(-0 455.89369 109.680771)">gated fusion</text>
   </g>
   <g id="text_11">
    <text style="font-size: 6.2px; font-family: 'Arial', 'DejaVu Sans', 'Liberation Sans', sans-serif; text-anchor: start; fill: #767676" x="35.962416" y="106.655917" transform="rotate(-0 35.962416 106.655917)">Leakage-control: top SNPs and p-value priors use only training samples for the active split.</text>
   </g>
  </g>
  <g id="axes_2">
   <g id="patch_15">
    <path d="M 20.295363 299.377823
L 23.476156 299.377823
L 23.476156 292.547509
L 20.295363 292.547509
z
" clip-path="url(#p4be0b55055)" style="fill: #7884b4"/>
   </g>
   <g id="patch_16">
    <path d="M 20.295363 312.062692
L 23.476156 312.062692
L 23.476156 305.232378
L 20.295363 305.232378
z
" clip-path="url(#p4be0b55055)" style="fill: #42949e"/>
   </g>
   <g id="patch_17">
    <path d="M 20.295363 324.747562
L 23.476156 324.747562
L 23.476156 317.917248
L 20.295363 317.917248
z
" clip-path="url(#p4be0b55055)" style="fill: #b64342"/>
   </g>
   <g id="patch_18">
    <path d="M 20.295363 337.432431
L 23.476156 337.432431
L 23.476156 330.602117
L 20.295363 330.602117
z
" clip-path="url(#p4be0b55055)" style="fill: #d6a84f"/>
   </g>
   <g id="patch_19">
    <path d="M 20.295363 350.117301
L 23.476156 350.117301
L 23.476156 343.286987
L 20.295363 343.286987
z
" clip-path="url(#p4be0b55055)" style="fill: #d8d8d8"/>
   </g>
   <g id="text_12">
    <text style="font-weight: 700; font-size: 9px; font-family: 'Arial', 'DejaVu Sans', 'Liberation Sans', sans-serif; text-anchor: start" x="16.584438" y="264.818171" transform="rotate(-0 16.584438 264.818171)">b</text>
   </g>
   <g id="text_13">
    <text style="font-weight: 700; font-size: 7px; font-family: 'Arial', 'DejaVu Sans', 'Liberation Sans', sans-serif; text-anchor: start" x="20.030297" y="280.350519" transform="rotate(-0 20.030297 280.350519)">Design choices prioritized</text>
   </g>
   <g id="text_14">
    <text style="font-size: 6.1px; font-family: 'Arial', 'DejaVu Sans', 'Liberation Sans', sans-serif; text-anchor: start; fill: #272727" x="24.801486" y="297.645885" transform="rotate(-0 24.801486 297.645885)">trait attention (0.45)</text>
   </g>
   <g id="text_15">
    <text style="font-size: 6.1px; font-family: 'Arial', 'DejaVu Sans', 'Liberation Sans', sans-serif; text-anchor: start; fill: #272727" x="24.801486" y="310.330754" transform="rotate(-0 24.801486 310.330754)">top-SNP branch (0.78)</text>
   </g>
   <g id="text_16">
    <text style="font-size: 6.1px; font-family: 'Arial', 'DejaVu Sans', 'Liberation Sans', sans-serif; text-anchor: start; fill: #272727" x="24.801486" y="323.015624" transform="rotate(-0 24.801486 323.015624)">gated fusion (0.85)</text>
   </g>
   <g id="text_17">
    <text style="font-size: 6.1px; font-family: 'Arial', 'DejaVu Sans', 'Liberation Sans', sans-serif; text-anchor: start; fill: #272727" x="24.801486" y="335.700493" transform="rotate(-0 24.801486 335.700493)">mild balance (0.70)</text>
   </g>
   <g id="text_18">
    <text style="font-size: 6.1px; font-family: 'Arial', 'DejaVu Sans', 'Liberation Sans', sans-serif; text-anchor: start; fill: #272727" x="24.801486" y="348.385362" transform="rotate(-0 24.801486 348.385362)">distillation (0.25)</text>
   </g>
  </g>
  <g id="axes_3">
   <g id="text_19">
    <text style="font-weight: 700; font-size: 9px; font-family: 'Arial', 'DejaVu Sans', 'Liberation Sans', sans-serif; text-anchor: start" x="290.955295" y="264.818171" transform="rotate(-0 290.955295 264.818171)">c</text>
   </g>
   <g id="text_20">
    <text style="font-weight: 700; font-size: 7px; font-family: 'Arial', 'DejaVu Sans', 'Liberation Sans', sans-serif; text-anchor: start" x="294.401153" y="280.350519" transform="rotate(-0 294.401153 280.350519)">Graph identity: no stable winner</text>
   </g>
   <g id="text_21">
    <text style="font-size: 6.1px; font-family: 'Arial', 'DejaVu Sans', 'Liberation Sans', sans-serif; text-anchor: start; fill: #5aa469" x="295.196352" y="299.597403" transform="rotate(-0 295.196352 299.597403)">chr: 0.282</text>
   </g>
   <g id="text_22">
    <text style="font-size: 6.1px; font-family: 'Arial', 'DejaVu Sans', 'Liberation Sans', sans-serif; text-anchor: start; fill: #5aa469" x="295.196352" y="313.258032" transform="rotate(-0 295.196352 313.258032)">random: 0.284</text>
   </g>
   <g id="text_23">
    <text style="font-size: 6.1px; font-family: 'Arial', 'DejaVu Sans', 'Liberation Sans', sans-serif; text-anchor: start; fill: #5aa469" x="295.196352" y="326.91866" transform="rotate(-0 295.196352 326.91866)">STRING: 0.275</text>
   </g>
   <g id="text_24">
    <text style="font-size: 6.1px; font-family: 'Arial', 'DejaVu Sans', 'Liberation Sans', sans-serif; text-anchor: start; fill: #5aa469" x="295.196352" y="340.579289" transform="rotate(-0 295.196352 340.579289)">fusion: 0.284</text>
   </g>
   <g id="text_25">
    <text style="font-size: 5.8px; font-family: 'Arial', 'DejaVu Sans', 'Liberation Sans', sans-serif; fill: #767676" transform="translate(295.196352 359.89107)">pilot macro-F1 values clustered</text>
    <text style="font-size: 5.8px; font-family: 'Arial', 'DejaVu Sans', 'Liberation Sans', sans-serif; fill: #767676" transform="translate(295.196352 366.385801)">within a narrow range</text>
   </g>
  </g>
  <g id="axes_4">
   <g id="line2d_1">
    <path d="M 568.77201 296.938425
L 591.302626 296.938425
" clip-path="url(#p13ab94a575)" style="fill: none; stroke: #b64342; stroke-linecap: square"/>
   </g>
   <g id="text_26">
    <text style="font-weight: 700; font-size: 9px; font-family: 'Arial', 'DejaVu Sans', 'Liberation Sans', sans-serif; text-anchor: start" x="565.326151" y="264.818171" transform="rotate(-0 565.326151 264.818171)">d</text>
   </g>
   <g id="text_27">
    <text style="font-weight: 700; font-size: 7.2px; font-family: 'Arial', 'DejaVu Sans', 'Liberation Sans', sans-serif; text-anchor: start; fill: #b64342" x="568.77201" y="290.115217" transform="rotate(-0 568.77201 290.115217)">Final RGF family</text>
   </g>
   <g id="text_28">
    <text style="font-size: 6.2px; font-family: 'Arial', 'DejaVu Sans', 'Liberation Sans', sans-serif; text-anchor: start; fill: #272727" x="569.567208" y="311.334107" transform="rotate(-0 569.567208 311.334107)">• gated top-SNP fusion</text>
   </g>
   <g id="text_29">
    <text style="font-size: 6.2px; font-family: 'Arial', 'DejaVu Sans', 'Liberation Sans', sans-serif; text-anchor: start; fill: #272727" x="569.567208" y="324.994736" transform="rotate(-0 569.567208 324.994736)">• alpha0.25 ordinal loss</text>
   </g>
   <g id="text_30">
    <text style="font-size: 6.2px; font-family: 'Arial', 'DejaVu Sans', 'Liberation Sans', sans-serif; text-anchor: start; fill: #272727" x="569.567208" y="338.655364" transform="rotate(-0 569.567208 338.655364)">• macro-F1 checkpoint</text>
   </g>
   <g id="text_31">
    <text style="font-size: 6.2px; font-family: 'Arial', 'DejaVu Sans', 'Liberation Sans', sans-serif; text-anchor: start; fill: #272727" x="569.567208" y="352.315993" transform="rotate(-0 569.567208 352.315993)">• optional weak distillation</text>
   </g>
  </g>
 </g>
 <defs>
  <clipPath id="pa16b4dfa1a">
   <rect x="18.704966" y="18.935166" width="575.24832" height="151.242674"/>
  </clipPath>
  <clipPath id="p4be0b55055">
   <rect x="18.704966" y="270.592927" width="26.506607" height="97.575919"/>
  </clipPath>
  <clipPath id="p13ab94a575">
   <rect x="567.44668" y="270.592927" width="26.506607" height="97.575919"/>
  </clipPath>
 </defs>
</svg>
